<?xml version="1.0" standalone="no"?><svg xmlns="http://www.w3.org/2000/svg" viewBox="0 0 1440 320"><path fill="#0099ff" fill-opacity="1" d="M0,192L14.1,170.7C28.2,149,56,107,85,90.7C112.9,75,141,85,169,101.3C197.6,117,226,139,254,138.7C282.4,139,311,117,339,90.7C367.1,64,395,32,424,42.7C451.8,53,480,107,508,154.7C536.5,203,565,245,593,234.7C621.2,224,649,160,678,144C705.9,128,734,160,762,149.3C790.6,139,819,85,847,64C875.3,43,904,53,932,80C960,107,988,149,1016,160C1044.7,171,1073,149,1101,165.3C1129.4,181,1158,235,1186,256C1214.1,277,1242,267,1271,240C1298.8,213,1327,171,1355,133.3C1383.5,96,1412,64,1426,48L1440,32L1440,320L1425.9,320C1411.8,320,1384,320,1355,320C1327.1,320,1299,320,1271,320C1242.4,320,1214,320,1186,320C1157.6,320,1129,320,1101,320C1072.9,320,1045,320,1016,320C988.2,320,960,320,932,320C903.5,320,875,320,847,320C818.8,320,791,320,762,320C734.1,320,706,320,678,320C649.4,320,621,320,593,320C564.7,320,536,320,508,320C480,320,452,320,424,320C395.3,320,367,320,339,320C310.6,320,282,320,254,320C225.9,320,198,320,169,320C141.2,320,113,320,85,320C56.5,320,28,320,14,320L0,320Z"></path></svg>